# ProBuilder 5.0.6
# https://unity3d.com/unity/features/worldbuilding/probuilder
# 10/13/2022 10:16:23 AM

mtllib ./PlayerShipModel.mtl
o PlayerShipModel

g Model
v -0.5 0.214149 0
v -0.1595749 0.714149 0
v -0.4619398 0.214149 0.1913417
v -0.1474279 0.714149 0.06106667
v -0.3535534 0.214149 0.3535534
v -0.1128365 0.714149 0.1128365
v -0.1913417 0.214149 0.4619398
v -0.06106665 0.714149 0.147428
v 2.185569E-08 0.214149 0.5
v 2.33149E-08 0.714149 0.1595749
v 0.1913417 0.214149 0.4619398
v 0.06106667 0.714149 0.147428
v 0.3535534 0.214149 0.3535534
v 0.1128365 0.714149 0.1128365
v 0.4619398 0.214149 0.1913417
v 0.147428 0.714149 0.06106667
v 0.5 0.214149 -4.371139E-08
v 0.1595749 0.714149 -1.395048E-08
v 0.4619398 0.214149 -0.1913417
v 0.147428 0.714149 -0.06106666
v 0.3535534 0.214149 -0.3535534
v 0.1128365 0.714149 -0.1128365
v 0.1913418 0.214149 -0.4619398
v 0.0610667 0.714149 -0.147428
v -5.96244E-09 0.214149 -0.5
v 1.443675E-08 0.714149 -0.1595749
v -0.1913418 0.214149 -0.4619397
v -0.06106668 0.714149 -0.147428
v -0.3535533 0.214149 -0.3535534
v -0.1128365 0.714149 -0.1128365
v -0.4619398 0.214149 -0.1913417
v -0.1474279 0.714149 -0.06106666
v -0.3674173 0 0
v 0 0 0
v -0.3394493 0 0.1406045
v 0 0.7917288 0
v -0.2598033 0 0.2598033
v -0.1406045 0 0.3394493
v 1.606032E-08 0 0.3674173
v 0.1406045 0 0.3394494
v 0.2598033 0 0.2598033
v 0.3394493 0 0.1406045
v 0.3674173 0 -3.212064E-08
v 0.3394493 0 -0.1406045
v 0.2598033 0 -0.2598033
v 0.1406046 0 -0.3394493
v -4.381408E-09 0 -0.3674173
v -0.1406046 0 -0.3394493
v -0.2598032 0 -0.2598033
v -0.3394494 0 -0.1406045
v -0.5 0.1136424 0
v -0.4619398 0.1136424 0.1913417
v -0.3535534 0.1136424 0.3535534
v -0.1913417 0.1136424 0.4619398
v 2.185569E-08 0.1136424 0.5
v 0.1913417 0.1136424 0.4619398
v 0.3535534 0.1136424 0.3535534
v 0.4619398 0.1136424 0.1913417
v 0.5 0.1136424 -4.371139E-08
v 0.4619398 0.1136424 -0.1913417
v 0.3535534 0.1136424 -0.3535534
v 0.1913418 0.1136424 -0.4619398
v -5.96244E-09 0.1136424 -0.5
v -0.1913418 0.1136424 -0.4619397
v -0.3535533 0.1136424 -0.3535534
v -0.4619398 0.1136424 -0.1913417

vt -0.09754519 -0.09423961
vt -0.03113152 0.5069913
vt 0.09754515 -0.09423961
vt 0.03113152 0.5069913
vt -0.3674173 0
vt 0 0
vt -0.3394493 0.1406045
vt -0.1687356 -0.06169385
vt -0.3461694 -0.06169385
vt -0.1796599 -0.0003966616
vt -0.2598033 0.2598033
vt -0.1358254 -0.117598
vt -0.3016925 -0.180613
vt -0.1678071 -0.06417646
vt -0.1406045 0.3394493
vt -0.08082467 -0.1604531
vt -0.2102093 -0.2818713
vt -0.1307364 -0.1232308
vt 1.606032E-08 0.3674173
vt -0.007957566 -0.179484
vt -0.07620813 -0.3432662
vt -0.06874068 -0.1659896
vt 0.1406045 0.3394494
vt 0.06874064 -0.1659895
vt 0.07620814 -0.3432662
vt 0.007957551 -0.1794839
vt 0.2598033 0.2598033
vt 0.1307363 -0.1232308
vt 0.2102092 -0.2818713
vt 0.08082454 -0.1604531
vt 0.3394493 0.1406045
vt 0.167807 -0.06417639
vt 0.3016925 -0.1806129
vt 0.1358254 -0.1175979
vt 0.3674173 -3.212064E-08
vt 0.1796598 -0.0003967044
vt 0.3461693 -0.0616939
vt 0.1687355 -0.06169391
vt 0.3394493 -0.1406045
vt 0.1687355 0.06169392
vt 0.3461693 0.06169394
vt 0.2598033 -0.2598033
vt 0.1358254 0.1175979
vt 0.3016925 0.1806129
vt 0.167807 0.06417637
vt 0.1406046 -0.3394493
vt 0.08082461 0.1604531
vt 0.2102092 0.2818713
vt 0.1307363 0.1232308
vt -4.381408E-09 -0.3674173
vt 0.007957482 0.179484
vt 0.07620809 0.3432662
vt 0.06874061 0.1659896
vt -0.1406046 -0.3394493
vt -0.06874064 0.1659896
vt -0.07620809 0.3432662
vt -0.007957504 0.179484
vt -0.2598032 -0.2598033
vt -0.1307364 0.1232307
vt -0.2102093 0.2818713
vt -0.08082467 0.160453
vt -0.3394494 -0.1406045
vt -0.1678071 0.06417639
vt -0.3016925 0.1806129
vt -0.1358255 0.1175979
vt -0.3461694 0.06169385
vt -0.1687356 0.06169385
vt -0.07167958 0.1490045
vt -0.09754518 0.3062452
vt 0.09754515 0.3062452
vt 0.07167956 0.1490045
vt -0.09754518 0.3977573
vt 0.09754515 0.3977573

vn -0.9553917 0.2953417 6.736114E-08
vn -0.8265995 0.5627906 3.77531E-08
vn -0.8826668 0.2953417 0.3656126
vn -0.7636784 0.5627906 0.3163259
vn -0.6755639 0.2953417 0.6755639
vn -0.5844941 0.5627906 0.5844942
vn -0.3656126 0.2953416 0.8826668
vn -0.316326 0.5627905 0.7636784
vn -5.151146E-08 0.2953417 0.9553917
vn -1.510124E-08 0.5627906 0.8265995
vn 0.3656126 0.2953417 0.8826668
vn 0.316326 0.5627905 0.7636784
vn 0.6755639 0.2953417 0.6755639
vn 0.5844942 0.5627905 0.5844942
vn 0.8826668 0.2953416 0.3656126
vn 0.7636784 0.5627905 0.3163259
vn 0.9553917 0.2953416 -5.94363E-08
vn 0.8265996 0.5627905 -5.285434E-08
vn 0.8826668 0.2953416 -0.3656126
vn 0.7636784 0.5627905 -0.316326
vn 0.6755641 0.2953416 -0.6755638
vn 0.5844943 0.5627905 -0.5844941
vn 0.3656127 0.2953417 -0.8826668
vn 0.316326 0.5627905 -0.7636784
vn -6.339872E-08 0.2953417 -0.9553917
vn -2.265186E-08 0.5627905 -0.8265995
vn -0.3656126 0.2953417 -0.8826668
vn -0.316326 0.5627905 -0.7636784
vn -0.6755639 0.2953416 -0.675564
vn -0.5844942 0.5627905 -0.5844942
vn -0.8826668 0.2953417 -0.3656126
vn -0.7636784 0.5627905 -0.3163259
vn 0 -1 0
vn -0.435588 0.8959665 0.08664377
vn -0.3692736 0.8959665 0.2467408
vn -0.2467408 0.8959665 0.3692736
vn -0.08664387 0.8959665 0.435588
vn 0.0866439 0.8959665 0.435588
vn 0.2467407 0.8959665 0.3692737
vn 0.3692736 0.8959665 0.2467407
vn 0.4355879 0.8959665 0.08664384
vn 0.4355879 0.8959665 -0.0866439
vn 0.3692736 0.8959665 -0.2467407
vn 0.2467408 0.8959665 -0.3692736
vn 0.08664384 0.8959665 -0.435588
vn -0.08664384 0.8959665 -0.435588
vn -0.2467408 0.8959665 -0.3692736
vn -0.3692737 0.8959665 -0.2467408
vn -0.435588 0.8959665 -0.08664378
vn -0.6507918 -0.7592562 6.761473E-08
vn -0.9074442 -0.4201726 7.483603E-08
vn -0.8383691 -0.4201726 0.3472639
vn -0.6012533 -0.7592562 0.2490473
vn -0.64166 -0.4201726 0.64166
vn -0.4601793 -0.7592562 0.4601794
vn -0.3472639 -0.4201726 0.8383691
vn -0.2490473 -0.7592562 0.6012533
vn -5.404824E-08 -0.4201726 0.9074442
vn -4.507649E-08 -0.7592562 0.6507918
vn 0.3472638 -0.4201726 0.8383691
vn 0.2490473 -0.7592562 0.6012533
vn 0.64166 -0.4201726 0.64166
vn 0.4601793 -0.7592562 0.4601793
vn 0.8383691 -0.4201726 0.3472638
vn 0.6012533 -0.7592562 0.2490473
vn 0.9074442 -0.4201727 -4.989069E-08
vn 0.6507918 -0.7592562 -3.756374E-08
vn 0.8383691 -0.4201726 -0.3472638
vn 0.6012533 -0.7592562 -0.2490473
vn 0.64166 -0.4201727 -0.6416599
vn 0.4601794 -0.7592562 -0.4601793
vn 0.347264 -0.4201726 -0.8383691
vn 0.2490473 -0.7592562 -0.6012532
vn -6.236336E-08 -0.4201727 -0.9074442
vn -6.010198E-08 -0.7592562 -0.6507918
vn -0.3472639 -0.4201727 -0.8383691
vn -0.2490473 -0.7592562 -0.6012533
vn -0.6416599 -0.4201726 -0.64166
vn -0.4601793 -0.7592562 -0.4601794
vn -0.8383691 -0.4201726 -0.3472639
vn -0.6012533 -0.7592562 -0.2490473

usemtl Grey
f 33/5/33 34/6/33 35/7/33
f 35/7/33 34/6/33 37/11/33
f 37/11/33 34/6/33 38/15/33
f 38/15/33 34/6/33 39/19/33
f 39/19/33 34/6/33 40/23/33
f 40/23/33 34/6/33 41/27/33
f 41/27/33 34/6/33 42/31/33
f 42/31/33 34/6/33 43/35/33
f 43/35/33 34/6/33 44/39/33
f 44/39/33 34/6/33 45/42/33
f 45/42/33 34/6/33 46/46/33
f 46/46/33 34/6/33 47/50/33
f 47/50/33 34/6/33 48/54/33
f 48/54/33 34/6/33 49/58/33
f 49/58/33 34/6/33 50/62/33
f 50/62/33 34/6/33 33/5/33
f 4/10/34 36/9/34 2/8/34
f 6/14/35 36/13/35 4/12/35
f 8/18/36 36/17/36 6/16/36
f 10/22/37 36/21/37 8/20/37
f 12/26/38 36/25/38 10/24/38
f 14/30/39 36/29/39 12/28/39
f 16/34/40 36/33/40 14/32/40
f 18/38/41 36/37/41 16/36/41
f 20/36/42 36/41/42 18/40/42
f 22/45/43 36/44/43 20/43/43
f 24/49/44 36/48/44 22/47/44
f 26/53/45 36/52/45 24/51/45
f 28/57/46 36/56/46 26/55/46
f 30/61/47 36/60/47 28/59/47
f 32/65/48 36/64/48 30/63/48
f 2/67/49 36/66/49 32/10/49
f 1/72/1 51/69/51 52/70/52
f 52/70/52 3/73/3 1/72/1
f 3/72/3 52/69/52 53/70/54
f 53/70/54 5/73/5 3/72/3
f 5/72/5 53/69/54 54/70/56
f 54/70/56 7/73/7 5/72/5
f 7/72/7 54/69/56 55/70/58
f 55/70/58 9/73/9 7/72/7
f 9/72/9 55/69/58 56/70/60
f 56/70/60 11/73/11 9/72/9
f 11/72/11 56/69/60 57/70/62
f 57/70/62 13/73/13 11/72/11
f 15/73/15 13/72/13 57/69/62
f 57/69/62 58/70/64 15/73/15
f 17/73/17 15/72/15 58/69/64
f 58/69/64 59/70/66 17/73/17
f 19/73/19 17/72/17 59/69/66
f 59/69/66 60/70/68 19/73/19
f 21/73/21 19/72/19 60/69/68
f 60/69/68 61/70/70 21/73/21
f 23/73/23 21/72/21 61/69/70
f 61/69/70 62/70/72 23/73/23
f 63/70/74 25/73/25 23/72/23
f 23/72/23 62/69/72 63/70/74
f 64/70/76 27/73/27 25/72/25
f 25/72/25 63/69/74 64/70/76
f 65/70/78 29/73/29 27/72/27
f 27/72/27 64/69/76 65/70/78
f 29/72/29 65/69/78 66/70/80
f 66/70/80 31/73/31 29/72/29
f 31/72/31 66/69/80 51/70/51
f 51/70/51 1/73/1 31/72/31

usemtl Light_Grey
f 3/3/3 4/4/4 2/2/2 1/1/1
f 5/3/5 6/4/6 4/2/4 3/1/3
f 7/3/7 8/4/8 6/2/6 5/1/5
f 9/3/9 10/4/10 8/2/8 7/1/7
f 11/3/11 12/4/12 10/2/10 9/1/9
f 13/3/13 14/4/14 12/2/12 11/1/11
f 15/3/15 16/4/16 14/2/14 13/1/13
f 17/3/17 18/4/18 16/2/16 15/1/15
f 19/3/19 20/4/20 18/2/18 17/1/17
f 21/3/21 22/4/22 20/2/20 19/1/19
f 23/3/23 24/4/24 22/2/22 21/1/21
f 25/3/25 26/4/26 24/2/24 23/1/23
f 27/3/27 28/4/28 26/2/26 25/1/25
f 29/3/29 30/4/30 28/2/28 27/1/27
f 31/3/31 32/4/32 30/2/30 29/1/29
f 1/3/1 2/4/2 32/2/32 31/1/31
f 52/70/52 51/69/51 33/68/50 35/71/53
f 53/70/54 52/69/52 35/68/53 37/71/55
f 54/70/56 53/69/54 37/68/55 38/71/57
f 55/70/58 54/69/56 38/68/57 39/71/59
f 56/70/60 55/69/58 39/68/59 40/71/61
f 57/70/62 56/69/60 40/68/61 41/71/63
f 42/71/65 58/70/64 57/69/62 41/68/63
f 43/71/67 59/70/66 58/69/64 42/68/65
f 44/71/69 60/70/68 59/69/66 43/68/67
f 45/71/71 61/70/70 60/69/68 44/68/69
f 46/71/73 62/70/72 61/69/70 45/68/71
f 46/68/73 47/71/75 63/70/74 62/69/72
f 47/68/75 48/71/77 64/70/76 63/69/74
f 48/68/77 49/71/79 65/70/78 64/69/76
f 66/70/80 65/69/78 49/68/79 50/71/81
f 51/70/51 66/69/80 50/68/81 33/71/50

